<svg viewBox="0 0 512 512" fill="none" xmlns="http://www.w3.org/2000/svg">
<g clip-path="url(#clip0_252_60)">
<rect width="512" height="512" rx="88" fill="#20142D"/>
<rect x="245" y="247" width="22" height="196" fill="#B0D326"/>
<rect x="137.5" y="49.5" width="236" height="189" rx="41.5" stroke="#B0D326" stroke-width="17"/>
<rect x="182" y="75" width="48.3774" height="48.3774" rx="24.1887" fill="#B0D326" stroke="#B0D326" stroke-width="2"/>
<rect x="281.635" y="75.0001" width="48.3774" height="48.3774" rx="24.1887" fill="#B0D326" stroke="#B0D326" stroke-width="2"/>
<rect x="281.635" y="164.56" width="48.3774" height="48.3774" rx="24.1887" fill="#B0D326" stroke="#B0D326" stroke-width="2"/>
<rect x="182" y="164.56" width="48.3774" height="48.3774" rx="24.1887" fill="#B0D326" stroke="#B0D326" stroke-width="2"/>
<rect x="299.547" y="123.138" width="11.434" height="41.6604" fill="#B0D326" stroke="#B0D326" stroke-width="2"/>
<rect x="199.912" y="123.138" width="11.434" height="41.6604" fill="#B0D326" stroke="#B0D326" stroke-width="2"/>
<rect x="282.994" y="94.0316" width="11.434" height="53.9749" transform="rotate(90 282.994 94.0316)" fill="#B0D326" stroke="#B0D326" stroke-width="2"/>
<rect x="281.874" y="183.591" width="11.434" height="52.8554" transform="rotate(90 281.874 183.591)" fill="#B0D326" stroke="#B0D326" stroke-width="2"/>
<path d="M396.63 282.314C399.378 278.814 404.845 279.418 406.763 283.433L427.658 327.182C429.653 331.358 426.368 336.125 421.755 335.748L369.844 331.503C365.079 331.114 362.661 325.579 365.614 321.818L396.63 282.314Z" fill="#B0D326"/>
<path d="M115.692 282.634C112.907 279.164 107.446 279.826 105.571 283.862L85.146 327.833C83.1962 332.03 86.5321 336.762 91.1407 336.335L143.005 331.534C147.766 331.093 150.124 325.532 147.131 321.803L115.692 282.634Z" fill="#B0D326"/>
<path d="M252.963 452.057C252.963 452.057 294.529 456.009 341.636 422.5C386.434 390.633 397.056 332.904 397.056 332.904" stroke="#B0D326" stroke-width="21"/>
<path d="M257.23 452.082C257.23 452.082 215.612 455.436 168.991 421.254C124.656 388.747 114.864 330.871 114.864 330.871" stroke="#B0D326" stroke-width="21"/>
<path d="M303.503 446.5C303.249 446.624 302.972 446.756 302.676 446.901C300.924 447.758 298.462 448.978 295.624 450.425C289.95 453.318 282.762 457.13 276.729 460.792C271.314 464.079 266.562 468.695 262.963 472.793C259.41 476.837 252.594 477.026 248.995 473.061C245.321 469.012 240.615 464.363 235.618 460.812C230.012 456.826 221.633 453.004 214.687 450.185C211.207 448.773 208.076 447.608 205.814 446.797C205.521 446.691 205.241 446.593 204.978 446.5H303.503Z" fill="#B0D326" stroke="#B0D326"/>
<rect x="12.5" y="12.4999" width="487" height="487" rx="75.5" stroke="#694981" stroke-width="25"/>
</g>
<defs>
<clipPath id="clip0_252_60">
<rect width="512" height="512" rx="88" fill="white"/>
</clipPath>
</defs>
</svg>